# xmcd
# 
# Track frame offsets:
#     150
#     28467
#     45945
#     67731
#     79779
#     102633
#     125382
#     148515
#     153375
#     171597
#     200242
#     222190
#     246512
# 
# Disc length: 3475
# 
# Revision: 2
# Processed by: cddbd v1.5.2PL0 Copyright (c) Steve Scherf et al.
# Submitted via: fre:ac v1.0.27
# 
DISCID=c20d910d
DTITLE=Santana - Shape Shifter
DYEAR=2012
DGENRE=Rock, Latin Rock
TTITLE0=Shape Shifter
TTITLE1=Dom
TTITLE2=Nomad
TTITLE3=Metatron
TTITLE4=Angelica Faith
TTITLE5=Never The Same Again
TTITLE6=In The Light Of A New Day
TTITLE7=Spark Of The Divine
TTITLE8=Macumba In Budapest
TTITLE9=Mr. Szabo
TTITLE10=Eres La Luz
TTITLE11=Canela
TTITLE12=Ah, Sweet Dancer
EXTD=CD 2012\nStarfaith Records [Sony] - 7 6629 99662 5\n21st Studio Album - 36th Album
EXTT0=
EXTT1=
EXTT2=
EXTT3=
EXTT4=
EXTT5=
EXTT6=
EXTT7=
EXTT8=
EXTT9=
EXTT10=
EXTT11=
EXTT12=
PLAYORDER=
